<svg id="svg" version="1.1" xmlns="http://www.w3.org/2000/svg" xmlns:xlink="http://www.w3.org/1999/xlink" width="400" height="163.06868867082963" viewBox="0, 0, 400,163.06868867082963"><g id="svgg"><path id="path0" d="M98.130 43.207 C 97.522 44.697,96.447 47.304,95.743 49.000 C 95.038 50.696,93.952 53.321,93.330 54.833 C 92.708 56.346,91.511 59.233,90.671 61.250 C 89.830 63.267,88.744 65.892,88.257 67.083 C 87.769 68.275,86.995 70.150,86.536 71.250 C 84.703 75.641,83.140 79.410,81.837 82.583 C 80.408 86.064,79.031 89.361,77.243 93.583 C 76.661 94.958,75.812 97.021,75.356 98.167 C 74.900 99.313,73.913 101.712,73.162 103.500 C 72.410 105.287,71.212 108.175,70.498 109.917 C 68.710 114.282,66.918 118.627,66.599 119.370 C 66.453 119.710,66.333 120.067,66.333 120.161 C 66.333 120.277,69.129 120.333,74.920 120.333 L 83.507 120.333 83.660 119.958 C 83.743 119.752,84.654 117.483,85.684 114.917 C 89.114 106.364,89.366 105.751,89.538 105.541 C 89.673 105.375,92.984 105.340,105.450 105.374 L 121.192 105.417 122.488 108.917 C 123.200 110.842,124.361 113.992,125.067 115.917 C 125.773 117.842,126.430 119.623,126.529 119.875 L 126.707 120.333 135.540 120.333 C 143.872 120.333,144.368 120.317,144.291 120.042 C 144.246 119.881,142.587 115.662,140.603 110.667 C 138.620 105.671,136.555 100.458,136.014 99.083 C 135.473 97.708,134.692 95.721,134.278 94.667 C 133.864 93.612,133.117 91.737,132.618 90.500 C 132.120 89.263,130.794 85.925,129.672 83.083 C 127.655 77.972,125.439 72.370,122.750 65.583 C 121.988 63.658,120.713 60.433,119.918 58.417 C 119.123 56.400,118.105 53.840,117.656 52.727 C 117.208 51.614,116.578 50.002,116.258 49.144 C 115.937 48.285,115.043 46.008,114.271 44.083 L 112.867 40.583 106.052 40.540 L 99.237 40.496 98.130 43.207 M154.333 80.500 L 154.333 120.333 163.166 120.333 L 171.998 120.333 172.041 109.042 L 172.083 97.750 181.417 97.653 C 189.364 97.571,190.985 97.512,192.333 97.260 C 206.128 94.683,215.000 83.734,215.000 69.289 C 215.000 55.507,208.116 45.384,196.453 42.015 C 191.921 40.705,191.267 40.670,171.292 40.668 L 154.333 40.667 154.333 80.500 M229.326 43.832 C 229.323 45.574,229.320 58.175,229.320 71.833 C 229.320 85.492,229.323 101.992,229.326 108.500 L 229.333 120.333 238.083 120.333 L 246.833 120.333 246.842 108.375 C 246.847 101.798,246.845 83.892,246.838 68.583 L 246.826 40.750 238.080 40.707 L 229.333 40.664 229.326 43.832 M188.446 58.513 C 194.588 59.361,197.917 63.222,197.917 69.500 C 197.917 74.040,196.102 77.232,192.292 79.394 C 189.392 81.038,188.475 81.164,179.375 81.165 L 172.000 81.167 172.000 69.861 C 172.000 63.643,172.050 58.506,172.111 58.444 C 172.300 58.256,187.031 58.318,188.446 58.513 M108.245 71.333 C 110.352 76.804,111.700 80.290,112.499 82.333 C 114.214 86.720,115.167 89.194,115.167 89.262 C 115.167 89.301,110.779 89.333,105.417 89.333 C 99.316 89.333,95.667 89.274,95.667 89.174 C 95.667 88.862,105.134 64.857,105.383 64.537 C 105.502 64.384,105.776 64.917,106.367 66.454 C 106.818 67.625,107.663 69.821,108.245 71.333 " stroke="none" fill="#bc0484" fill-rule="evenodd"></path><path id="path1" d="M299.500 51.748 C 299.500 63.055,299.448 67.500,299.317 67.500 C 299.217 67.500,298.936 67.359,298.692 67.186 C 289.040 60.335,272.219 62.994,264.587 72.578 C 256.762 82.405,256.476 100.046,263.982 109.917 C 271.209 119.420,285.530 123.769,294.583 119.209 C 295.615 118.689,298.667 116.627,299.080 116.170 C 299.599 115.597,299.656 115.766,299.703 118.042 L 299.750 120.250 307.750 120.250 L 315.750 120.250 315.750 78.167 L 315.750 36.083 307.625 36.040 L 299.500 35.997 299.500 51.748 M50.750 63.276 C 47.188 63.610,42.604 66.270,39.615 69.737 C 38.491 71.042,38.500 71.061,38.500 67.500 L 38.500 64.333 30.417 64.333 L 22.333 64.333 22.333 92.333 L 22.333 120.333 30.417 120.333 L 38.500 120.333 38.542 108.458 C 38.565 101.927,38.557 94.777,38.524 92.570 C 38.457 88.016,38.393 88.302,39.963 86.083 C 44.949 79.035,51.700 77.199,56.328 81.633 C 56.962 82.239,57.166 82.341,57.663 82.299 L 58.250 82.250 58.441 74.917 C 58.546 70.883,58.640 66.860,58.649 65.976 L 58.667 64.370 57.994 64.100 C 56.681 63.575,52.561 63.106,50.750 63.276 M291.333 79.112 C 293.610 79.567,296.652 81.092,298.600 82.757 L 299.500 83.526 299.500 91.791 L 299.500 100.057 298.789 100.738 C 291.171 108.037,278.906 105.778,275.748 96.495 C 272.204 86.075,280.406 76.928,291.333 79.112 " stroke="none" fill="#040404" fill-rule="evenodd"></path><path id="path2" d="M0.000 46.418 L 0.000 92.836 11.042 92.793 L 22.083 92.750 22.167 78.500 L 22.250 64.250 30.458 64.207 L 38.667 64.164 38.667 67.248 C 38.667 68.945,38.704 70.333,38.750 70.333 C 38.797 70.333,39.378 69.761,40.042 69.062 C 44.576 64.288,50.424 62.215,55.827 63.467 L 56.738 63.678 83.494 36.923 C 98.210 22.207,110.330 10.167,110.427 10.167 C 110.525 10.167,110.820 10.392,111.083 10.667 C 111.734 11.346,111.833 11.302,111.833 10.334 L 111.833 9.501 145.016 9.459 L 178.198 9.417 178.571 8.250 C 179.893 4.122,183.073 1.114,187.022 0.257 C 187.930 0.060,174.489 0.025,94.042 0.013 L 0.000 0.000 0.000 46.418 M191.996 0.260 C 200.610 2.128,203.809 13.092,197.574 19.385 C 191.563 25.454,181.414 22.968,178.649 14.750 L 178.201 13.417 145.392 13.375 L 112.583 13.333 85.697 40.219 L 58.811 67.106 58.577 74.428 C 58.448 78.455,58.341 81.919,58.338 82.125 C 58.329 82.832,57.014 82.656,56.376 81.862 C 55.768 81.104,54.082 80.181,52.355 79.660 C 49.270 78.728,46.172 79.838,42.864 83.060 C 39.257 86.574,38.639 87.694,38.703 90.612 L 38.750 92.750 46.825 92.793 L 54.901 92.837 55.601 92.150 L 56.300 91.463 57.044 92.148 L 57.787 92.833 67.540 92.833 C 75.469 92.833,77.327 92.792,77.477 92.611 C 77.579 92.488,78.231 91.007,78.926 89.319 C 79.621 87.631,80.776 84.825,81.493 83.083 C 82.210 81.342,83.372 78.529,84.075 76.833 C 84.778 75.137,85.944 72.325,86.665 70.583 C 87.386 68.842,88.552 66.029,89.255 64.333 C 89.959 62.637,91.046 60.012,91.672 58.500 C 92.298 56.987,93.420 54.288,94.165 52.500 C 94.911 50.712,95.822 48.500,96.190 47.583 C 96.558 46.667,97.390 44.660,98.038 43.123 L 99.216 40.330 106.059 40.373 L 112.902 40.417 114.163 43.531 C 115.571 47.011,115.667 47.180,115.667 46.194 L 115.667 45.500 117.708 45.504 C 118.831 45.506,126.500 45.617,134.750 45.750 C 143.000 45.883,150.781 45.994,152.042 45.996 L 154.333 46.000 154.333 43.333 L 154.333 40.667 172.158 40.667 C 191.411 40.667,191.762 40.680,195.431 41.573 C 198.485 42.315,201.968 43.931,204.435 45.750 L 205.845 46.788 211.964 46.895 C 215.330 46.954,220.538 47.049,223.538 47.106 L 228.993 47.211 229.038 43.980 L 229.083 40.750 235.917 40.707 L 242.750 40.664 254.958 28.457 C 266.121 17.297,267.167 16.204,267.167 15.709 L 267.167 15.167 322.217 15.167 L 377.267 15.167 377.470 14.183 C 378.879 7.361,387.586 3.560,393.833 7.039 C 404.244 12.836,400.217 28.469,388.333 28.390 C 383.252 28.356,378.436 24.620,377.466 19.958 L 377.267 19.000 323.591 19.000 L 269.916 19.000 258.458 30.459 L 247.000 41.918 247.000 67.375 L 247.000 92.833 252.725 92.833 L 258.451 92.833 258.551 90.125 C 259.168 73.402,269.478 63.354,286.083 63.293 C 290.742 63.276,294.561 64.367,298.417 66.816 L 299.250 67.345 299.293 51.672 L 299.335 36.000 307.584 36.000 L 315.832 36.000 315.875 64.375 L 315.917 92.750 331.380 92.793 C 343.670 92.826,346.856 92.792,346.905 92.626 C 347.774 89.688,348.932 87.652,350.509 86.292 C 357.862 79.949,369.034 84.605,369.462 94.191 C 369.925 104.564,357.464 110.114,350.145 102.795 C 348.631 101.282,347.012 98.275,347.002 96.958 C 347.000 96.683,346.146 96.667,331.417 96.667 L 315.833 96.667 315.833 108.585 L 315.833 120.503 307.708 120.460 L 299.583 120.417 299.537 118.209 L 299.490 116.002 298.120 117.094 C 291.117 122.679,280.474 122.476,271.016 116.577 C 264.725 112.653,259.909 105.389,258.921 98.333 C 258.863 97.921,258.776 97.377,258.728 97.125 L 258.640 96.667 252.820 96.667 L 247.000 96.667 247.000 108.501 L 247.000 120.336 238.042 120.293 L 229.083 120.250 229.041 108.458 L 228.998 96.667 211.999 96.667 C 202.649 96.667,195.000 96.712,195.000 96.768 C 195.000 96.823,206.905 108.748,221.455 123.268 L 247.910 149.667 304.011 149.667 L 360.112 149.667 360.401 148.629 C 362.868 139.755,374.245 137.248,380.167 144.274 C 385.848 151.015,381.639 161.802,372.931 162.819 C 372.228 162.901,377.464 162.966,385.875 162.978 L 400.000 163.000 400.000 81.500 L 400.000 0.000 295.458 0.013 C 205.305 0.025,191.065 0.059,191.996 0.260 M188.092 4.010 C 183.084 4.848,180.353 10.994,183.089 15.271 C 186.358 20.380,193.725 19.958,196.310 14.513 C 198.904 9.050,194.165 2.994,188.092 4.010 M387.216 9.668 C 383.787 10.169,381.000 13.434,381.000 16.949 C 381.000 22.625,386.629 26.209,391.735 23.784 C 398.289 20.672,396.844 10.820,389.667 9.675 C 388.478 9.486,388.466 9.486,387.216 9.668 M116.500 49.423 C 116.500 49.472,116.872 50.429,117.327 51.548 C 117.781 52.667,118.937 55.571,119.894 58.000 C 122.018 63.389,123.805 67.912,126.578 74.917 C 127.739 77.850,129.297 81.787,130.040 83.667 C 130.784 85.546,131.902 88.358,132.527 89.917 L 133.662 92.750 143.896 92.793 L 154.129 92.836 154.241 89.126 C 154.303 87.086,154.330 77.429,154.302 67.667 L 154.250 49.917 137.333 49.640 C 117.529 49.315,116.500 49.305,116.500 49.423 M209.669 50.833 C 209.670 50.879,210.050 51.479,210.513 52.167 C 218.606 64.181,215.937 83.178,204.958 91.705 C 204.248 92.257,203.667 92.736,203.667 92.771 C 203.667 92.805,209.367 92.833,216.333 92.833 L 229.000 92.833 229.000 71.936 L 229.000 51.039 221.375 50.934 C 217.181 50.876,212.831 50.810,211.708 50.789 C 210.585 50.768,209.668 50.788,209.669 50.833 M172.167 69.824 L 172.167 81.167 178.542 81.162 C 187.348 81.156,188.688 80.996,191.613 79.593 C 199.919 75.610,200.119 63.213,191.936 59.599 C 189.677 58.601,189.798 58.612,180.625 58.544 L 172.167 58.481 172.167 69.824 M104.470 67.053 C 103.949 68.353,102.962 70.842,102.277 72.583 C 99.537 79.545,97.760 84.037,96.802 86.417 C 96.248 87.792,95.758 89.010,95.713 89.125 C 95.648 89.290,97.635 89.333,105.316 89.333 C 110.642 89.333,115.000 89.301,115.000 89.262 C 115.000 89.177,113.846 86.152,112.007 81.417 C 110.677 77.991,109.208 74.179,106.839 68.004 C 106.190 66.310,105.604 64.872,105.537 64.807 C 105.471 64.743,104.991 65.753,104.470 67.053 M285.402 79.070 C 279.456 80.425,275.396 85.153,275.049 91.125 L 274.950 92.833 287.142 92.833 L 299.333 92.833 299.324 88.208 L 299.315 83.583 298.350 82.773 C 294.696 79.706,289.337 78.173,285.402 79.070 M356.786 87.331 C 352.582 88.084,349.735 92.632,350.935 96.678 C 353.167 104.200,363.496 104.041,365.441 96.456 C 366.752 91.346,362.049 86.389,356.786 87.331 M0.000 129.833 L 0.000 163.000 185.542 162.978 C 287.590 162.966,370.596 162.897,370.000 162.824 C 365.376 162.261,361.492 158.799,360.333 154.208 L 360.154 153.500 304.293 153.500 L 248.433 153.500 247.878 154.037 L 247.324 154.574 218.871 126.161 L 190.417 97.748 181.292 97.801 L 172.167 97.854 172.167 109.094 L 172.167 120.333 163.167 120.333 L 154.167 120.333 154.167 108.500 L 154.167 96.667 144.686 96.667 L 135.205 96.667 136.161 99.125 C 136.687 100.477,138.265 104.471,139.669 108.000 C 142.188 114.333,144.498 120.211,144.499 120.292 C 144.500 120.315,140.467 120.333,135.537 120.333 L 126.574 120.333 126.017 118.875 C 125.710 118.073,125.026 116.217,124.497 114.750 C 123.968 113.283,123.201 111.183,122.793 110.083 C 122.385 108.983,121.845 107.502,121.592 106.792 L 121.133 105.500 105.394 105.500 L 89.655 105.500 89.311 106.292 C 88.894 107.253,86.511 113.134,85.120 116.636 L 84.106 119.188 99.344 134.428 L 114.583 149.667 134.928 149.667 L 155.273 149.667 155.461 148.257 C 157.323 134.340,177.981 135.552,178.071 149.583 C 178.147 161.457,161.766 165.435,156.624 154.792 L 156.000 153.500 133.917 153.500 L 111.833 153.500 111.833 152.958 C 111.833 152.461,110.495 151.078,95.833 136.416 L 79.833 120.417 73.000 120.370 C 69.108 120.343,66.167 120.258,66.167 120.173 C 66.167 120.091,66.791 118.537,67.554 116.720 C 68.317 114.903,69.191 112.791,69.496 112.026 L 70.050 110.635 63.068 103.651 L 56.085 96.667 47.377 96.667 L 38.669 96.667 38.626 108.542 L 38.583 120.417 30.417 120.417 L 22.250 120.417 22.207 108.542 L 22.164 96.667 11.082 96.667 L 0.000 96.667 0.000 129.833 M62.517 97.621 C 64.772 100.013,71.595 106.636,71.698 106.533 C 71.760 106.469,72.221 105.442,72.721 104.250 C 73.554 102.264,75.589 97.369,75.786 96.875 C 75.852 96.710,74.377 96.667,68.744 96.667 L 61.618 96.667 62.517 97.621 M276.185 97.375 C 280.497 105.890,291.316 107.597,298.364 100.874 L 299.333 99.949 299.333 98.308 L 299.333 96.667 287.580 96.667 L 275.827 96.667 276.185 97.375 M164.500 142.470 C 159.111 144.256,157.507 150.991,161.516 155.000 C 166.185 159.669,174.222 156.295,174.222 149.667 C 174.222 144.603,169.225 140.904,164.500 142.470 M370.417 144.112 C 365.334 144.896,362.484 150.150,364.646 154.750 C 367.769 161.394,377.670 159.928,378.851 152.646 C 379.630 147.841,375.214 143.373,370.417 144.112 " stroke="none" fill="transparent" fill-rule="evenodd"></path><path id="path3" d="M187.833 0.168 C 183.328 0.896,179.650 4.296,178.501 8.792 L 178.320 9.500 145.077 9.500 L 111.833 9.500 111.833 10.450 L 111.833 11.401 111.163 10.746 L 110.492 10.091 83.663 36.921 C 68.906 51.677,56.927 63.774,57.042 63.802 C 57.156 63.831,57.569 63.969,57.958 64.108 L 58.667 64.361 58.667 65.723 L 58.667 67.084 85.626 40.126 L 112.584 13.167 145.355 13.167 C 171.376 13.167,178.158 13.210,178.284 13.375 C 178.370 13.490,178.573 14.071,178.733 14.666 C 181.354 24.404,195.250 25.456,199.660 16.250 C 203.535 8.163,196.612 -1.250,187.833 0.168 M191.500 4.037 C 198.199 6.051,199.095 15.148,192.887 18.120 C 185.112 21.841,178.136 12.047,184.224 5.958 C 186.058 4.125,189.110 3.319,191.500 4.037 M385.751 6.093 C 381.891 7.063,378.646 10.249,377.567 14.129 L 377.279 15.167 322.306 15.167 L 267.333 15.167 267.333 15.706 C 267.333 16.197,266.258 17.320,255.132 28.450 L 242.931 40.655 244.924 40.703 L 246.917 40.750 246.915 41.293 C 246.913 41.799,247.690 41.059,258.416 30.334 L 269.918 18.833 323.571 18.875 L 377.223 18.917 377.580 20.083 C 380.656 30.142,394.034 31.306,398.657 21.917 C 402.808 13.487,394.902 3.795,385.751 6.093 M390.384 9.749 C 395.064 10.967,397.406 16.087,395.266 20.418 C 392.103 26.818,382.910 25.741,381.092 18.757 C 379.693 13.382,384.911 8.323,390.384 9.749 M299.333 51.667 C 299.333 60.283,299.293 67.333,299.244 67.333 C 299.195 67.333,298.951 67.212,298.702 67.064 L 298.250 66.794 298.667 67.143 C 299.541 67.877,299.500 68.642,299.500 51.750 C 299.500 43.087,299.462 36.000,299.417 36.000 C 299.371 36.000,299.333 43.050,299.333 51.667 M115.634 46.355 C 115.586 47.195,115.971 48.689,116.331 49.060 C 116.408 49.139,123.021 49.303,131.027 49.423 C 139.033 49.543,147.552 49.685,149.958 49.738 L 154.333 49.834 154.333 48.016 L 154.333 46.199 152.625 46.104 C 151.685 46.052,144.579 45.932,136.833 45.837 C 129.087 45.743,121.160 45.619,119.218 45.563 L 115.685 45.460 115.634 46.355 M206.670 47.634 C 207.085 47.997,207.862 48.820,208.397 49.462 L 209.369 50.629 214.393 50.727 C 217.156 50.781,221.610 50.868,224.292 50.919 L 229.167 51.013 229.167 49.194 L 229.167 47.376 226.375 47.273 C 224.840 47.216,219.608 47.125,214.750 47.071 L 205.917 46.973 206.670 47.634 M52.958 63.284 C 53.165 63.324,53.502 63.324,53.708 63.284 C 53.915 63.245,53.746 63.212,53.333 63.212 C 52.921 63.212,52.752 63.245,52.958 63.284 M283.375 63.448 C 283.535 63.490,283.798 63.490,283.958 63.448 C 284.119 63.406,283.987 63.372,283.667 63.372 C 283.346 63.372,283.215 63.406,283.375 63.448 M22.279 64.276 C 22.217 64.338,22.167 70.789,22.167 78.611 L 22.167 92.833 11.083 92.833 L 0.000 92.833 0.000 94.750 L 0.000 96.667 11.082 96.667 L 22.164 96.667 22.208 108.542 C 22.232 115.073,22.270 107.798,22.293 92.375 L 22.333 64.333 30.417 64.333 L 38.500 64.333 38.500 67.500 C 38.500 70.947,38.503 70.955,39.342 70.042 L 39.917 69.417 39.295 69.987 L 38.674 70.558 38.629 67.404 L 38.583 64.250 30.488 64.207 C 26.035 64.183,22.341 64.214,22.279 64.276 M46.333 64.417 C 46.104 64.548,45.992 64.655,46.083 64.655 C 46.175 64.655,46.438 64.548,46.667 64.417 C 46.896 64.286,47.008 64.178,46.917 64.178 C 46.825 64.178,46.563 64.286,46.333 64.417 M45.042 65.094 C 44.652 65.328,44.333 65.558,44.333 65.606 C 44.333 65.696,45.458 65.058,45.742 64.807 C 46.028 64.553,45.761 64.663,45.042 65.094 M294.985 65.176 C 295.572 65.448,296.080 65.643,296.113 65.609 C 296.186 65.536,294.271 64.663,294.062 64.674 C 293.982 64.679,294.397 64.904,294.985 65.176 M271.625 66.595 C 270.979 66.946,271.052 67.067,271.708 66.733 C 272.337 66.414,272.448 66.331,272.236 66.340 C 272.152 66.344,271.877 66.459,271.625 66.595 M41.658 67.625 L 41.083 68.250 41.708 67.676 C 42.290 67.141,42.410 67.000,42.283 67.000 C 42.255 67.000,41.974 67.281,41.658 67.625 M270.116 67.496 C 269.686 67.769,269.333 68.029,269.333 68.073 C 269.333 68.117,269.708 67.920,270.167 67.635 C 270.902 67.178,271.121 67.000,270.949 67.000 C 270.921 67.000,270.546 67.223,270.116 67.496 M58.563 70.500 C 58.563 71.554,58.590 71.985,58.623 71.458 C 58.656 70.931,58.656 70.069,58.623 69.542 C 58.590 69.015,58.563 69.446,58.563 70.500 M266.324 70.458 L 265.750 71.083 266.375 70.509 C 266.719 70.193,267.000 69.912,267.000 69.884 C 267.000 69.757,266.859 69.877,266.324 70.458 M264.733 72.208 C 264.003 73.050,263.786 73.333,263.871 73.333 C 263.920 73.333,264.236 72.996,264.574 72.583 C 265.200 71.819,265.324 71.526,264.733 72.208 M58.395 77.167 C 58.395 78.129,58.423 78.523,58.456 78.042 C 58.490 77.560,58.490 76.773,58.456 76.292 C 58.423 75.810,58.395 76.204,58.395 77.167 M261.742 76.682 C 261.595 76.966,261.505 77.227,261.541 77.263 C 261.577 77.300,261.732 77.068,261.884 76.748 C 262.227 76.029,262.108 75.974,261.742 76.682 M287.625 78.784 C 287.831 78.824,288.169 78.824,288.375 78.784 C 288.581 78.745,288.412 78.712,288.000 78.712 C 287.587 78.712,287.419 78.745,287.625 78.784 M47.254 79.766 C 46.890 79.899,46.521 80.079,46.434 80.166 C 46.348 80.252,46.684 80.168,47.180 79.980 C 47.677 79.791,48.115 79.606,48.153 79.569 C 48.280 79.443,47.923 79.521,47.254 79.766 M53.149 79.849 C 53.552 80.027,53.912 80.144,53.948 80.108 C 54.020 80.036,52.736 79.493,52.538 79.512 C 52.471 79.518,52.746 79.670,53.149 79.849 M281.958 80.095 C 281.312 80.446,281.385 80.567,282.042 80.233 C 282.670 79.914,282.781 79.831,282.569 79.840 C 282.485 79.844,282.210 79.959,281.958 80.095 M56.262 81.682 C 56.530 82.012,56.784 82.253,56.825 82.219 C 56.866 82.184,56.646 81.915,56.337 81.620 L 55.774 81.083 56.262 81.682 M43.143 82.483 C 42.553 83.023,41.709 83.904,41.268 84.441 L 40.466 85.417 41.466 84.333 C 42.016 83.737,42.905 82.856,43.441 82.375 C 43.978 81.894,44.371 81.500,44.316 81.500 C 44.260 81.500,43.732 81.942,43.143 82.483 M297.167 81.719 C 297.167 81.760,297.442 82.004,297.779 82.260 C 298.115 82.517,298.338 82.642,298.273 82.538 C 298.142 82.325,297.167 81.603,297.167 81.719 M57.583 82.333 L 56.917 82.453 57.532 82.476 C 57.870 82.489,58.193 82.425,58.250 82.333 C 58.307 82.242,58.330 82.177,58.302 82.190 C 58.273 82.203,57.950 82.268,57.583 82.333 M298.875 83.092 L 299.333 83.602 299.333 88.217 L 299.333 92.833 287.174 92.833 L 275.014 92.833 274.947 91.625 C 274.910 90.960,274.904 91.129,274.934 92.000 C 274.985 93.527,275.278 95.253,275.648 96.208 L 275.825 96.667 287.573 96.667 L 299.322 96.667 299.376 98.375 C 299.405 99.315,299.446 96.366,299.465 91.823 L 299.500 83.562 298.958 83.073 L 298.417 82.583 298.875 83.092 M259.167 84.417 C 259.053 85.021,258.993 85.549,259.034 85.590 C 259.076 85.631,259.201 85.169,259.313 84.563 C 259.424 83.956,259.484 83.428,259.445 83.389 C 259.406 83.350,259.281 83.813,259.167 84.417 M355.224 83.821 C 351.417 84.850,348.300 87.961,347.234 91.796 L 346.945 92.833 331.389 92.833 L 315.833 92.833 315.833 94.750 L 315.833 96.667 331.389 96.667 L 346.945 96.667 347.234 97.708 C 350.016 107.741,363.736 108.961,368.327 99.583 C 372.513 91.034,364.446 81.331,355.224 83.821 M360.365 87.469 C 367.610 89.859,367.442 100.101,360.126 102.022 C 352.630 103.990,347.343 94.880,352.793 89.387 C 354.752 87.414,357.832 86.633,360.365 87.469 M38.578 104.250 C 38.575 114.872,38.589 116.286,38.621 108.458 L 38.669 96.667 47.435 96.667 L 56.201 96.667 63.114 103.583 C 66.917 107.388,70.078 110.499,70.139 110.498 C 70.200 110.496,70.572 109.694,70.967 108.715 L 71.683 106.935 66.551 101.801 L 61.419 96.667 68.676 96.667 L 75.932 96.667 76.653 94.958 C 77.049 94.019,77.410 93.156,77.454 93.042 C 77.519 92.876,75.474 92.833,67.567 92.833 L 57.597 92.833 56.965 92.216 L 56.333 91.599 55.701 92.216 L 55.069 92.833 46.873 92.833 L 38.676 92.833 38.630 90.542 C 38.604 89.281,38.581 95.450,38.578 104.250 M258.548 89.917 C 258.549 90.375,258.581 90.543,258.620 90.289 C 258.658 90.036,258.657 89.661,258.617 89.456 C 258.578 89.251,258.546 89.458,258.548 89.917 M202.757 93.203 C 201.674 93.988,198.598 95.475,196.807 96.079 L 195.083 96.661 212.125 96.664 L 229.167 96.667 229.167 94.752 L 229.167 92.837 216.274 92.794 L 203.381 92.750 202.757 93.203 M133.733 93.125 C 133.790 93.285,134.116 94.148,134.459 95.042 L 135.083 96.667 144.708 96.667 L 154.333 96.667 154.333 94.750 L 154.333 92.833 143.982 92.833 C 134.196 92.833,133.637 92.849,133.733 93.125 M246.917 94.750 L 246.917 96.667 252.778 96.667 C 257.303 96.667,258.661 96.714,258.737 96.875 C 258.791 96.990,258.801 96.896,258.760 96.667 C 258.718 96.438,258.632 95.481,258.568 94.542 L 258.452 92.833 252.685 92.833 L 246.917 92.833 246.917 94.750 M193.833 96.936 C 193.329 97.056,192.343 97.240,191.641 97.344 L 190.366 97.534 217.975 125.118 C 233.160 140.289,245.979 153.082,246.463 153.546 L 247.342 154.390 247.888 153.861 L 248.433 153.333 304.324 153.375 L 360.216 153.417 360.507 154.479 C 362.801 162.862,373.226 165.646,379.333 159.507 C 386.057 152.749,382.155 141.513,372.672 140.324 C 367.269 139.647,361.655 143.523,360.488 148.737 L 360.280 149.667 304.015 149.667 L 247.750 149.667 221.250 123.192 L 194.750 96.716 193.833 96.936 M259.036 98.667 C 259.035 98.896,259.093 99.271,259.167 99.500 C 259.346 100.060,259.346 99.455,259.167 98.750 C 259.052 98.301,259.039 98.292,259.036 98.667 M298.740 100.708 L 298.250 101.250 298.792 100.760 C 299.297 100.304,299.410 100.167,299.281 100.167 C 299.252 100.167,299.009 100.410,298.740 100.708 M259.523 100.833 C 259.523 100.971,259.588 101.233,259.667 101.417 C 259.757 101.627,259.810 101.658,259.810 101.500 C 259.810 101.362,259.745 101.100,259.667 100.917 C 259.576 100.707,259.523 100.676,259.523 100.833 M278.833 101.417 C 279.144 101.737,279.436 102.000,279.482 102.000 C 279.528 102.000,279.311 101.737,279.000 101.417 C 278.689 101.096,278.397 100.833,278.351 100.833 C 278.305 100.833,278.522 101.096,278.833 101.417 M280.112 102.451 C 280.403 102.707,280.891 103.059,281.196 103.232 C 281.949 103.660,281.614 103.359,280.500 102.606 C 279.837 102.158,279.730 102.115,280.112 102.451 M295.466 102.982 C 294.364 103.610,294.248 103.791,295.280 103.273 C 295.755 103.035,296.190 102.763,296.248 102.670 C 296.379 102.458,296.405 102.447,295.466 102.982 M287.292 105.122 C 287.681 105.157,288.319 105.157,288.708 105.122 C 289.098 105.087,288.779 105.058,288.000 105.058 C 287.221 105.058,286.902 105.087,287.292 105.122 M261.333 105.730 C 261.333 105.909,261.829 106.833,261.925 106.833 C 261.971 106.833,261.885 106.590,261.733 106.292 C 261.424 105.683,261.333 105.556,261.333 105.730 M262.250 107.500 C 262.392 107.775,262.546 108.000,262.592 108.000 C 262.638 108.000,262.559 107.775,262.417 107.500 C 262.274 107.225,262.121 107.000,262.075 107.000 C 262.029 107.000,262.108 107.225,262.250 107.500 M266.333 112.750 C 267.108 113.529,267.780 114.167,267.826 114.167 C 267.872 114.167,267.275 113.529,266.500 112.750 C 265.725 111.971,265.053 111.333,265.007 111.333 C 264.962 111.333,265.558 111.971,266.333 112.750 M269.060 115.129 C 269.192 115.342,270.167 116.064,270.167 115.948 C 270.167 115.907,269.891 115.663,269.555 115.406 C 269.218 115.150,268.996 115.025,269.060 115.129 M296.953 117.737 C 295.969 118.418,295.735 118.656,296.461 118.238 C 297.021 117.916,297.982 117.176,297.833 117.182 C 297.787 117.184,297.391 117.433,296.953 117.737 M273.500 117.915 C 273.500 118.029,274.520 118.535,274.597 118.459 C 274.633 118.423,274.401 118.268,274.081 118.116 C 273.762 117.963,273.500 117.873,273.500 117.915 M275.167 118.750 C 275.396 118.881,275.658 118.988,275.750 118.988 C 275.842 118.988,275.729 118.881,275.500 118.750 C 275.271 118.619,275.008 118.512,274.917 118.512 C 274.825 118.512,274.938 118.619,275.167 118.750 M83.718 119.833 L 83.529 120.333 81.723 120.333 L 79.917 120.333 95.875 136.292 C 110.491 150.908,111.833 152.296,111.833 152.792 L 111.833 153.333 133.914 153.333 L 155.995 153.333 156.572 154.542 C 161.724 165.337,177.917 161.638,177.917 149.667 C 177.917 135.555,156.867 134.444,155.562 148.487 L 155.452 149.667 134.934 149.667 L 114.416 149.667 99.250 134.500 C 90.909 126.158,84.044 119.333,83.995 119.333 C 83.946 119.333,83.821 119.558,83.718 119.833 M283.292 120.951 C 283.498 120.991,283.835 120.991,284.042 120.951 C 284.248 120.911,284.079 120.879,283.667 120.879 C 283.254 120.879,283.085 120.911,283.292 120.951 M286.750 121.000 L 284.417 121.098 286.667 121.112 C 287.904 121.121,289.142 121.070,289.417 121.000 C 289.992 120.853,290.248 120.853,286.750 121.000 M169.294 142.527 C 174.528 144.206,176.054 151.125,172.060 155.063 C 167.656 159.404,160.262 156.928,159.308 150.793 C 158.421 145.087,163.686 140.729,169.294 142.527 M373.917 144.383 C 380.982 147.003,380.598 156.746,373.345 158.898 C 368.779 160.253,363.833 156.450,363.833 151.583 C 363.833 146.411,369.149 142.615,373.917 144.383 " stroke="none" fill="#9c9494" fill-rule="evenodd"></path><path id="path4" d="M181.409 3.375 L 180.750 4.083 181.458 3.425 C 181.848 3.062,182.167 2.743,182.167 2.716 C 182.167 2.590,182.022 2.716,181.409 3.375 M197.493 3.375 C 197.902 3.810,198.258 4.167,198.285 4.167 C 198.410 4.167,198.278 4.017,197.542 3.326 L 196.750 2.583 197.493 3.375 M188.042 3.948 C 188.202 3.990,188.465 3.990,188.625 3.948 C 188.785 3.906,188.654 3.872,188.333 3.872 C 188.012 3.872,187.881 3.906,188.042 3.948 M190.375 3.948 C 190.535 3.990,190.798 3.990,190.958 3.948 C 191.119 3.906,190.987 3.872,190.667 3.872 C 190.346 3.872,190.215 3.906,190.375 3.948 M387.713 5.789 C 388.152 5.824,388.827 5.823,389.213 5.788 C 389.600 5.754,389.242 5.725,388.417 5.726 C 387.592 5.726,387.275 5.755,387.713 5.789 M195.739 7.250 C 196.319 8.105,196.438 8.206,196.116 7.571 C 195.972 7.290,195.729 6.954,195.574 6.826 C 195.419 6.697,195.494 6.888,195.739 7.250 M380.500 8.917 C 380.095 9.329,379.801 9.667,379.847 9.667 C 379.893 9.667,380.262 9.329,380.667 8.917 C 381.072 8.504,381.365 8.167,381.319 8.167 C 381.274 8.167,380.905 8.504,380.500 8.917 M83.500 36.958 L 56.750 63.750 83.542 37.000 C 98.277 22.288,110.333 10.232,110.333 10.209 C 110.333 10.092,108.370 12.050,83.500 36.958 M197.039 11.333 C 197.039 11.654,197.073 11.785,197.115 11.625 C 197.157 11.465,197.157 11.202,197.115 11.042 C 197.073 10.881,197.039 11.012,197.039 11.333 M378.242 12.017 C 378.005 12.484,377.839 12.894,377.873 12.929 C 377.907 12.963,378.136 12.580,378.382 12.079 C 378.628 11.577,378.794 11.167,378.751 11.167 C 378.708 11.167,378.478 11.549,378.242 12.017 M145.400 13.333 C 178.023 13.416,178.217 13.419,178.346 13.750 C 178.436 13.980,178.480 14.004,178.488 13.825 C 178.519 13.149,179.393 13.165,145.342 13.208 L 112.583 13.249 145.400 13.333 M85.583 40.208 L 58.750 67.083 85.625 40.250 C 110.611 15.303,112.575 13.333,112.458 13.333 C 112.435 13.333,100.341 25.427,85.583 40.208 M267.205 15.667 C 267.205 15.987,267.240 16.119,267.282 15.958 C 267.323 15.798,267.323 15.535,267.282 15.375 C 267.240 15.215,267.205 15.346,267.205 15.667 M380.885 17.083 C 380.886 17.633,380.917 17.838,380.954 17.539 C 380.991 17.239,380.990 16.789,380.952 16.539 C 380.914 16.288,380.884 16.533,380.885 17.083 M254.916 28.542 L 242.750 40.750 254.958 28.584 C 266.307 17.274,267.241 16.333,267.125 16.333 C 267.101 16.333,261.608 21.827,254.916 28.542 M396.039 17.000 C 396.039 17.321,396.073 17.452,396.115 17.292 C 396.157 17.131,396.157 16.869,396.115 16.708 C 396.073 16.548,396.039 16.679,396.039 17.000 M188.958 18.954 C 189.256 18.991,189.744 18.991,190.042 18.954 C 190.340 18.917,190.096 18.887,189.500 18.887 C 188.904 18.887,188.660 18.917,188.958 18.954 M258.374 30.376 L 246.832 41.919 246.875 67.418 L 246.918 92.917 246.959 67.416 L 247.000 41.916 258.459 30.458 L 269.917 19.001 323.584 18.958 L 377.250 18.916 323.583 18.875 L 269.916 18.833 258.374 30.376 M378.000 21.564 C 378.000 21.743,378.496 22.667,378.592 22.667 C 378.638 22.667,378.551 22.423,378.400 22.125 C 378.090 21.517,378.000 21.390,378.000 21.564 M189.208 22.782 C 189.369 22.823,189.631 22.823,189.792 22.782 C 189.952 22.740,189.821 22.705,189.500 22.705 C 189.179 22.705,189.048 22.740,189.208 22.782 M391.667 23.833 C 391.346 24.009,391.143 24.156,391.217 24.160 C 391.393 24.169,392.333 23.680,392.333 23.579 C 392.333 23.470,392.324 23.474,391.667 23.833 M389.042 24.615 C 389.202 24.657,389.465 24.657,389.625 24.615 C 389.785 24.573,389.654 24.539,389.333 24.539 C 389.012 24.539,388.881 24.573,389.042 24.615 M393.500 27.167 C 393.179 27.342,392.977 27.489,393.050 27.493 C 393.227 27.502,394.167 27.013,394.167 26.912 C 394.167 26.803,394.157 26.807,393.500 27.167 M388.125 28.451 C 388.331 28.491,388.669 28.491,388.875 28.451 C 389.081 28.411,388.912 28.379,388.500 28.379 C 388.087 28.379,387.919 28.411,388.125 28.451 M101.500 40.453 C 107.639 40.570,112.961 40.572,112.891 40.458 C 112.848 40.390,109.724 40.350,105.948 40.370 C 102.173 40.390,100.171 40.428,101.500 40.453 M189.377 40.786 C 189.631 40.825,190.006 40.824,190.211 40.784 C 190.416 40.744,190.208 40.713,189.750 40.714 C 189.292 40.716,189.124 40.748,189.377 40.786 M229.125 40.764 C 229.056 40.833,229.000 42.298,229.000 44.021 L 229.000 47.154 227.542 47.209 L 226.083 47.265 227.622 47.299 C 229.092 47.332,229.164 47.317,229.253 46.958 C 229.390 46.401,229.271 40.618,229.125 40.764 M195.083 41.584 C 195.446 41.758,198.077 42.479,198.136 42.420 C 198.216 42.340,196.276 41.741,195.500 41.606 C 195.179 41.550,194.992 41.540,195.083 41.584 M97.438 44.521 C 97.011 45.545,96.690 46.412,96.724 46.446 C 96.758 46.481,97.136 45.670,97.563 44.646 C 97.989 43.621,98.310 42.755,98.276 42.720 C 98.242 42.686,97.864 43.496,97.438 44.521 M114.167 43.884 C 114.167 44.051,115.389 46.945,115.514 47.075 C 115.710 47.279,115.721 46.961,115.526 46.742 C 115.448 46.655,115.139 45.965,114.840 45.208 C 114.382 44.050,114.167 43.627,114.167 43.884 M201.691 44.068 C 201.750 44.133,202.350 44.520,203.024 44.928 C 203.698 45.336,204.046 45.500,203.796 45.293 C 203.350 44.923,201.481 43.835,201.691 44.068 M120.382 45.624 C 121.004 45.656,121.979 45.656,122.549 45.623 C 123.118 45.591,122.608 45.564,121.417 45.565 C 120.225 45.565,119.759 45.592,120.382 45.624 M131.625 45.790 C 132.198 45.823,133.135 45.823,133.708 45.790 C 134.281 45.758,133.813 45.731,132.667 45.731 C 131.521 45.731,131.052 45.758,131.625 45.790 M142.708 45.957 C 143.327 45.989,144.340 45.989,144.958 45.957 C 145.577 45.925,145.071 45.899,143.833 45.899 C 142.596 45.899,142.090 45.925,142.708 45.957 M153.042 46.119 C 153.294 46.158,153.706 46.158,153.958 46.119 C 154.210 46.081,154.004 46.050,153.500 46.050 C 152.996 46.050,152.790 46.081,153.042 46.119 M205.459 46.625 C 205.842 46.991,205.934 46.999,209.134 46.965 L 212.417 46.930 209.059 46.840 C 206.429 46.770,205.632 46.696,205.384 46.500 C 205.210 46.362,205.244 46.419,205.459 46.625 M217.301 47.125 C 218.429 47.153,220.229 47.153,221.301 47.124 C 222.373 47.095,221.450 47.072,219.250 47.072 C 217.050 47.072,216.173 47.096,217.301 47.125 M116.333 49.292 C 116.333 49.360,116.764 49.395,117.291 49.370 C 118.964 49.287,119.128 49.217,117.708 49.192 C 116.952 49.178,116.333 49.223,116.333 49.292 M124.292 49.458 C 125.323 49.487,127.010 49.487,128.042 49.458 C 129.073 49.429,128.229 49.405,126.167 49.405 C 124.104 49.405,123.260 49.429,124.292 49.458 M94.856 50.773 C 94.569 51.478,94.361 52.083,94.394 52.116 C 94.427 52.150,94.690 51.600,94.977 50.894 C 95.265 50.188,95.473 49.584,95.439 49.550 C 95.406 49.517,95.143 50.067,94.856 50.773 M134.968 49.625 C 136.096 49.653,137.896 49.653,138.968 49.624 C 140.040 49.595,139.117 49.572,136.917 49.572 C 134.717 49.572,133.840 49.596,134.968 49.625 M145.468 49.791 C 146.596 49.820,148.396 49.820,149.468 49.791 C 150.540 49.762,149.617 49.738,147.417 49.739 C 145.217 49.739,144.340 49.762,145.468 49.791 M211.215 50.790 C 211.838 50.823,212.813 50.822,213.382 50.790 C 213.951 50.757,213.442 50.731,212.250 50.731 C 211.058 50.732,210.593 50.758,211.215 50.790 M222.458 50.957 C 223.031 50.989,223.969 50.989,224.542 50.957 C 225.115 50.924,224.646 50.898,223.500 50.898 C 222.354 50.898,221.885 50.924,222.458 50.957 M117.049 51.208 C 117.095 51.323,117.378 52.036,117.677 52.793 C 117.975 53.550,118.249 54.140,118.284 54.105 C 118.365 54.024,117.162 51.000,117.048 51.000 C 117.002 51.000,117.002 51.094,117.049 51.208 M229.000 71.927 C 229.000 85.835,229.056 92.818,229.167 92.750 C 229.276 92.682,229.333 85.526,229.333 71.823 C 229.333 58.052,229.277 51.000,229.167 51.000 C 229.056 51.000,229.000 58.087,229.000 71.927 M210.273 52.010 C 210.377 52.142,210.855 52.925,211.334 53.750 C 211.814 54.575,212.156 55.100,212.094 54.917 C 211.915 54.391,210.489 52.013,210.276 51.885 C 210.131 51.798,210.131 51.829,210.273 52.010 M92.440 56.607 C 92.104 57.401,91.858 58.080,91.894 58.117 C 91.931 58.153,92.233 57.530,92.567 56.733 C 92.900 55.936,93.146 55.257,93.112 55.223 C 93.079 55.190,92.776 55.812,92.440 56.607 M119.396 57.083 C 119.784 58.198,120.733 60.490,120.785 60.437 C 120.855 60.367,119.524 56.963,119.375 56.833 C 119.323 56.788,119.332 56.900,119.396 57.083 M212.833 56.891 C 212.833 56.922,212.988 57.391,213.177 57.932 C 213.366 58.474,213.704 59.554,213.928 60.333 C 214.152 61.112,214.291 61.450,214.237 61.083 C 214.078 60.007,212.833 56.288,212.833 56.891 M172.077 58.542 C 172.033 58.656,172.017 63.813,172.041 70.000 L 172.086 81.250 172.126 69.877 L 172.167 58.503 179.958 58.458 L 187.750 58.413 179.953 58.373 C 173.839 58.342,172.139 58.378,172.077 58.542 M192.000 59.612 C 192.504 59.841,193.292 60.288,193.750 60.605 C 194.556 61.162,194.564 61.164,194.000 60.665 C 193.447 60.176,191.532 59.151,191.226 59.180 C 191.148 59.188,191.496 59.382,192.000 59.612 M90.023 62.439 C 89.735 63.145,89.527 63.750,89.561 63.783 C 89.594 63.816,89.857 63.266,90.144 62.561 C 90.431 61.855,90.639 61.250,90.606 61.217 C 90.573 61.184,90.310 61.734,90.023 62.439 M195.534 62.270 C 196.020 62.923,196.513 63.598,196.631 63.770 C 196.749 63.942,196.689 63.783,196.498 63.417 C 196.307 63.050,195.813 62.375,195.401 61.917 C 194.665 61.098,194.668 61.105,195.534 62.270 M121.896 63.417 C 122.284 64.531,123.233 66.823,123.285 66.771 C 123.355 66.701,122.024 63.296,121.875 63.167 C 121.823 63.121,121.832 63.233,121.896 63.417 M286.044 63.286 C 286.297 63.325,286.672 63.324,286.877 63.284 C 287.082 63.244,286.875 63.213,286.417 63.214 C 285.958 63.216,285.791 63.248,286.044 63.286 M89.194 64.424 C 88.914 65.037,88.968 65.167,89.270 64.610 C 89.411 64.350,89.495 64.106,89.457 64.068 C 89.419 64.030,89.300 64.190,89.194 64.424 M105.395 64.526 C 105.160 64.831,104.151 67.373,104.232 67.454 C 104.267 67.490,104.549 66.877,104.857 66.092 C 105.342 64.855,105.444 64.703,105.625 64.948 C 105.851 65.255,105.881 65.098,105.689 64.609 C 105.590 64.359,105.535 64.343,105.395 64.526 M214.872 65.667 C 214.872 65.987,214.906 66.119,214.948 65.958 C 214.990 65.798,214.990 65.535,214.948 65.375 C 214.906 65.215,214.872 65.346,214.872 65.667 M58.717 68.000 C 58.717 68.504,58.748 68.710,58.786 68.458 C 58.824 68.206,58.824 67.794,58.786 67.542 C 58.748 67.290,58.717 67.496,58.717 68.000 M87.362 68.862 C 86.979 69.793,86.692 70.581,86.725 70.614 C 86.758 70.646,87.099 69.913,87.483 68.983 C 87.867 68.053,88.154 67.265,88.120 67.231 C 88.087 67.198,87.745 67.932,87.362 68.862 M215.064 69.333 C 215.064 70.479,215.091 70.948,215.123 70.375 C 215.156 69.802,215.156 68.865,215.123 68.292 C 215.091 67.719,215.064 68.188,215.064 69.333 M40.333 68.750 C 39.650 69.438,39.129 70.000,39.175 70.000 C 39.221 70.000,39.817 69.438,40.500 68.750 C 41.183 68.063,41.704 67.500,41.658 67.500 C 41.612 67.500,41.016 68.063,40.333 68.750 M197.872 68.167 C 197.872 68.487,197.906 68.619,197.948 68.458 C 197.990 68.298,197.990 68.035,197.948 67.875 C 197.906 67.715,197.872 67.846,197.872 68.167 M106.870 68.167 C 107.365 69.538,108.046 71.176,108.100 71.123 C 108.179 71.043,107.068 68.173,106.898 68.022 C 106.833 67.964,106.821 68.029,106.870 68.167 M124.667 70.388 C 124.667 70.597,125.874 73.514,125.936 73.453 C 125.970 73.419,125.728 72.722,125.399 71.904 C 124.825 70.476,124.667 70.149,124.667 70.388 M102.189 72.439 C 101.804 73.414,101.516 74.239,101.550 74.272 C 101.584 74.306,101.926 73.536,102.311 72.561 C 102.696 71.586,102.984 70.761,102.950 70.728 C 102.916 70.694,102.574 71.464,102.189 72.439 M265.240 71.542 L 264.750 72.083 265.292 71.594 C 265.797 71.138,265.910 71.000,265.781 71.000 C 265.752 71.000,265.509 71.244,265.240 71.542 M58.553 73.333 C 58.553 73.929,58.584 74.173,58.621 73.875 C 58.658 73.577,58.658 73.090,58.621 72.792 C 58.584 72.494,58.553 72.737,58.553 73.333 M214.872 72.833 C 214.872 73.154,214.906 73.285,214.948 73.125 C 214.990 72.965,214.990 72.702,214.948 72.542 C 214.906 72.381,214.872 72.512,214.872 72.833 M84.773 75.107 C 84.437 75.901,84.189 76.578,84.222 76.611 C 84.255 76.644,84.557 76.021,84.893 75.227 C 85.230 74.432,85.478 73.755,85.445 73.722 C 85.412 73.689,85.110 74.312,84.773 75.107 M196.418 75.203 C 195.980 75.974,195.268 76.837,194.335 77.729 C 193.555 78.474,193.067 78.973,193.250 78.837 C 194.636 77.814,196.049 76.258,196.734 75.000 C 197.443 73.698,197.176 73.869,196.418 75.203 M109.500 74.881 C 109.500 75.098,110.870 78.519,110.932 78.457 C 110.968 78.421,110.693 77.611,110.322 76.658 C 109.692 75.042,109.500 74.626,109.500 74.881 M127.247 76.958 C 127.310 77.119,127.513 77.649,127.697 78.137 C 127.882 78.624,128.066 78.989,128.107 78.949 C 128.195 78.861,127.337 76.667,127.214 76.667 C 127.169 76.667,127.183 76.798,127.247 76.958 M99.689 78.772 C 99.304 79.747,99.016 80.572,99.050 80.606 C 99.084 80.639,99.426 79.869,99.811 78.894 C 100.196 77.920,100.484 77.095,100.450 77.061 C 100.416 77.027,100.074 77.797,99.689 78.772 M213.623 78.790 C 213.384 79.589,213.216 80.271,213.250 80.305 C 213.284 80.340,213.511 79.716,213.754 78.920 C 213.996 78.124,214.164 77.442,214.127 77.405 C 214.090 77.367,213.863 77.991,213.623 78.790 M58.375 79.417 C 58.377 79.783,58.411 79.914,58.451 79.706 C 58.491 79.499,58.490 79.199,58.448 79.040 C 58.406 78.880,58.374 79.050,58.375 79.417 M191.750 79.538 C 191.383 79.735,190.633 80.071,190.083 80.287 C 189.533 80.502,189.308 80.635,189.583 80.581 C 190.139 80.473,192.500 79.402,192.500 79.258 C 192.500 79.135,192.509 79.132,191.750 79.538 M82.356 80.939 C 82.069 81.645,81.861 82.250,81.894 82.283 C 81.927 82.316,82.190 81.766,82.477 81.061 C 82.765 80.355,82.973 79.750,82.939 79.717 C 82.906 79.684,82.643 80.234,82.356 80.939 M187.917 80.833 C 187.468 80.948,187.459 80.961,187.833 80.964 C 188.063 80.965,188.438 80.907,188.667 80.833 C 189.227 80.654,188.622 80.654,187.917 80.833 M185.875 81.119 C 186.127 81.158,186.540 81.158,186.792 81.119 C 187.044 81.081,186.838 81.050,186.333 81.050 C 185.829 81.050,185.623 81.081,185.875 81.119 M112.070 81.583 C 112.740 83.401,113.393 84.996,113.445 84.944 C 113.522 84.867,112.222 81.494,112.060 81.350 C 111.998 81.295,112.002 81.400,112.070 81.583 M42.495 83.292 L 41.417 84.417 42.542 83.338 C 43.160 82.745,43.667 82.239,43.667 82.213 C 43.667 82.090,43.497 82.247,42.495 83.292 M129.382 82.375 C 129.429 82.490,129.711 83.203,130.010 83.960 C 130.309 84.716,130.582 85.307,130.617 85.271 C 130.699 85.190,129.495 82.167,129.381 82.167 C 129.335 82.167,129.336 82.260,129.382 82.375 M211.267 84.207 C 210.840 84.963,210.598 85.470,210.731 85.332 C 211.005 85.048,212.237 82.833,212.121 82.833 C 212.079 82.833,211.695 83.452,211.267 84.207 M97.269 84.853 C 96.939 85.699,96.698 86.420,96.733 86.455 C 96.768 86.491,97.067 85.827,97.397 84.981 C 97.728 84.135,97.969 83.413,97.934 83.378 C 97.898 83.343,97.599 84.006,97.269 84.853 M357.542 83.455 C 357.885 83.491,358.448 83.491,358.792 83.455 C 359.135 83.419,358.854 83.389,358.167 83.389 C 357.479 83.389,357.198 83.419,357.542 83.455 M350.075 86.708 L 349.417 87.417 350.125 86.758 C 350.784 86.145,350.910 86.000,350.784 86.000 C 350.757 86.000,350.438 86.319,350.075 86.708 M79.607 87.607 C 79.270 88.401,79.022 89.078,79.055 89.111 C 79.088 89.144,79.390 88.521,79.727 87.727 C 80.063 86.932,80.311 86.255,80.278 86.222 C 80.245 86.189,79.943 86.812,79.607 87.607 M365.667 86.219 C 365.667 86.248,365.910 86.491,366.208 86.760 L 366.750 87.250 366.260 86.708 C 365.804 86.203,365.667 86.090,365.667 86.219 M114.441 87.666 C 114.500 87.895,114.688 88.382,114.858 88.749 C 115.028 89.116,115.119 89.229,115.059 89.001 C 115.000 88.772,114.812 88.284,114.642 87.917 C 114.472 87.550,114.381 87.437,114.441 87.666 M207.145 89.514 C 205.988 90.696,205.313 91.444,205.645 91.177 C 206.493 90.496,209.571 87.289,209.317 87.350 C 209.280 87.359,208.303 88.333,207.145 89.514 M154.230 91.000 C 154.230 92.054,154.257 92.485,154.290 91.958 C 154.323 91.431,154.323 90.569,154.290 90.042 C 154.257 89.515,154.230 89.946,154.230 91.000 M347.909 89.682 C 347.762 89.966,347.672 90.227,347.708 90.263 C 347.744 90.300,347.898 90.068,348.051 89.748 C 348.394 89.029,348.275 88.974,347.909 89.682 M132.212 89.542 C 132.954 91.459,133.396 92.493,133.449 92.440 C 133.531 92.357,132.330 89.333,132.215 89.333 C 132.169 89.333,132.167 89.427,132.212 89.542 M55.575 92.208 L 54.917 92.917 55.625 92.258 C 56.284 91.645,56.410 91.500,56.284 91.500 C 56.257 91.500,55.938 91.819,55.575 92.208 M57.000 92.250 C 57.311 92.571,57.603 92.833,57.649 92.833 C 57.695 92.833,57.478 92.571,57.167 92.250 C 56.856 91.929,56.564 91.667,56.518 91.667 C 56.472 91.667,56.689 91.929,57.000 92.250 M203.994 92.345 L 203.417 92.857 204.042 92.409 C 204.594 92.013,204.774 91.833,204.619 91.833 C 204.592 91.833,204.311 92.064,203.994 92.345 M350.750 92.833 C 350.687 93.121,350.670 93.392,350.712 93.434 C 350.755 93.477,350.837 93.272,350.896 92.979 C 351.035 92.284,350.900 92.150,350.750 92.833 M350.548 94.750 C 350.549 95.208,350.581 95.376,350.620 95.123 C 350.658 94.869,350.657 94.494,350.617 94.289 C 350.578 94.084,350.546 94.292,350.548 94.750 M365.709 94.750 C 365.711 95.117,365.745 95.247,365.785 95.040 C 365.824 94.832,365.823 94.532,365.781 94.373 C 365.739 94.214,365.707 94.383,365.709 94.750 M62.250 97.500 C 62.701 97.958,63.108 98.333,63.154 98.333 C 63.200 98.333,62.868 97.958,62.417 97.500 C 61.965 97.042,61.558 96.667,61.513 96.667 C 61.467 96.667,61.799 97.042,62.250 97.500 M135.447 97.719 C 135.690 98.332,135.917 98.805,135.951 98.771 C 136.033 98.689,135.350 96.958,135.157 96.761 C 135.074 96.675,135.204 97.107,135.447 97.719 M154.246 108.500 C 154.246 115.054,154.266 117.735,154.292 114.458 C 154.317 111.181,154.317 105.819,154.292 102.542 C 154.266 99.265,154.246 101.946,154.246 108.500 M229.000 108.407 C 229.000 116.054,229.058 120.183,229.167 120.250 C 229.277 120.318,229.333 116.363,229.333 108.510 C 229.333 100.726,229.276 96.667,229.167 96.667 C 229.057 96.667,229.000 100.691,229.000 108.407 M246.912 108.500 C 246.912 115.054,246.933 117.735,246.958 114.458 C 246.984 111.181,246.984 105.819,246.958 102.542 C 246.933 99.265,246.912 101.946,246.912 108.500 M57.083 97.667 C 57.535 98.125,57.942 98.500,57.987 98.500 C 58.033 98.500,57.701 98.125,57.250 97.667 C 56.799 97.208,56.392 96.833,56.346 96.833 C 56.300 96.833,56.632 97.208,57.083 97.667 M180.667 97.664 L 172.083 97.750 172.082 109.042 L 172.080 120.333 172.124 109.083 L 172.169 97.833 180.543 97.821 C 185.148 97.814,189.254 97.749,189.667 97.675 C 190.300 97.563,190.326 97.545,189.833 97.560 C 189.512 97.570,185.387 97.617,180.667 97.664 M74.773 99.273 C 74.437 100.068,74.189 100.745,74.222 100.778 C 74.255 100.811,74.557 100.188,74.893 99.393 C 75.230 98.599,75.478 97.922,75.445 97.889 C 75.412 97.856,75.110 98.479,74.773 99.273 M64.833 100.083 C 65.331 100.587,65.776 101.000,65.822 101.000 C 65.868 101.000,65.498 100.587,65.000 100.083 C 64.502 99.579,64.057 99.167,64.011 99.167 C 63.966 99.167,64.335 99.579,64.833 100.083 M59.583 100.167 C 60.035 100.625,60.442 101.000,60.487 101.000 C 60.533 101.000,60.201 100.625,59.750 100.167 C 59.299 99.708,58.892 99.333,58.846 99.333 C 58.800 99.333,59.132 99.708,59.583 100.167 M192.833 100.052 C 192.833 100.081,193.077 100.325,193.375 100.594 L 193.917 101.083 193.427 100.542 C 192.971 100.037,192.833 99.923,192.833 100.052 M298.658 100.625 L 298.083 101.250 298.708 100.676 C 299.290 100.141,299.410 100.000,299.283 100.000 C 299.255 100.000,298.974 100.281,298.658 100.625 M137.063 101.750 C 137.451 102.865,138.399 105.156,138.452 105.104 C 138.522 105.034,137.190 101.630,137.042 101.500 C 136.990 101.454,136.999 101.567,137.063 101.750 M62.167 102.750 C 62.665 103.254,63.109 103.667,63.155 103.667 C 63.201 103.667,62.831 103.254,62.333 102.750 C 61.835 102.246,61.391 101.833,61.345 101.833 C 61.299 101.833,61.669 102.246,62.167 102.750 M69.081 104.292 C 70.455 105.690,71.629 106.833,71.690 106.833 C 71.822 106.833,73.035 103.979,72.942 103.886 C 72.906 103.851,72.705 104.255,72.495 104.786 C 72.284 105.316,72.005 105.967,71.873 106.232 L 71.634 106.713 69.109 104.232 L 66.583 101.750 69.081 104.292 M195.917 103.167 C 196.275 103.533,196.605 103.833,196.651 103.833 C 196.697 103.833,196.441 103.533,196.083 103.167 C 195.725 102.800,195.395 102.500,195.349 102.500 C 195.303 102.500,195.559 102.800,195.917 103.167 M64.750 105.333 C 65.201 105.792,65.608 106.167,65.654 106.167 C 65.700 106.167,65.368 105.792,64.917 105.333 C 64.465 104.875,64.058 104.500,64.013 104.500 C 63.967 104.500,64.299 104.875,64.750 105.333 M89.539 105.541 C 89.313 105.817,88.812 107.034,88.891 107.113 C 88.925 107.147,89.109 106.798,89.300 106.337 L 89.648 105.500 105.394 105.500 C 115.980 105.500,121.167 105.556,121.224 105.671 C 121.270 105.765,121.289 105.746,121.265 105.629 C 121.202 105.319,89.791 105.231,89.539 105.541 M357.542 106.121 C 357.885 106.157,358.448 106.157,358.792 106.121 C 359.135 106.085,358.854 106.056,358.167 106.056 C 357.479 106.056,357.198 106.085,357.542 106.121 M67.250 107.833 C 67.701 108.292,68.108 108.667,68.154 108.667 C 68.200 108.667,67.868 108.292,67.417 107.833 C 66.965 107.375,66.558 107.000,66.513 107.000 C 66.467 107.000,66.799 107.375,67.250 107.833 M122.167 108.383 C 122.167 108.598,123.547 112.176,123.607 112.116 C 123.641 112.081,123.367 111.240,122.999 110.246 C 122.384 108.590,122.167 108.103,122.167 108.383 M139.833 108.720 C 139.833 108.930,140.708 111.014,140.770 110.952 C 140.805 110.918,140.638 110.408,140.400 109.820 C 139.978 108.778,139.833 108.497,139.833 108.720 M69.486 110.033 L 70.048 110.649 69.524 111.936 C 69.236 112.643,69.028 113.250,69.062 113.284 C 69.096 113.318,69.370 112.737,69.670 111.992 L 70.216 110.638 69.569 110.027 L 68.923 109.417 69.486 110.033 M87.023 111.523 C 86.645 112.459,86.362 113.251,86.396 113.285 C 86.429 113.318,86.765 112.579,87.144 111.644 C 87.522 110.708,87.804 109.915,87.771 109.882 C 87.738 109.849,87.401 110.587,87.023 111.523 M208.917 110.833 C 209.368 111.292,209.775 111.667,209.821 111.667 C 209.867 111.667,209.535 111.292,209.083 110.833 C 208.632 110.375,208.225 110.000,208.179 110.000 C 208.133 110.000,208.465 110.375,208.917 110.833 M203.660 110.875 C 204.350 111.611,204.500 111.743,204.500 111.618 C 204.500 111.591,204.144 111.235,203.708 110.826 L 202.917 110.083 203.660 110.875 M206.083 113.333 C 206.720 113.975,207.279 114.500,207.324 114.500 C 207.370 114.500,206.887 113.975,206.250 113.333 C 205.613 112.692,205.055 112.167,205.009 112.167 C 204.963 112.167,205.447 112.692,206.083 113.333 M211.417 113.333 C 211.961 113.883,212.444 114.333,212.490 114.333 C 212.535 114.333,212.128 113.883,211.583 113.333 C 211.039 112.783,210.556 112.333,210.510 112.333 C 210.465 112.333,210.872 112.783,211.417 113.333 M266.500 113.083 C 266.811 113.404,267.103 113.667,267.149 113.667 C 267.195 113.667,266.978 113.404,266.667 113.083 C 266.356 112.763,266.064 112.500,266.018 112.500 C 265.972 112.500,266.189 112.763,266.500 113.083 M142.049 114.375 C 142.095 114.490,142.378 115.203,142.677 115.960 C 142.975 116.716,143.249 117.307,143.284 117.271 C 143.365 117.190,142.162 114.167,142.048 114.167 C 142.002 114.167,142.002 114.260,142.049 114.375 M124.529 114.833 C 124.930 116.049,126.065 118.990,126.115 118.941 C 126.188 118.868,124.691 114.796,124.545 114.669 C 124.491 114.622,124.484 114.696,124.529 114.833 M213.833 115.750 C 214.424 116.346,214.945 116.833,214.990 116.833 C 215.036 116.833,214.591 116.346,214.000 115.750 C 213.409 115.154,212.889 114.667,212.843 114.667 C 212.797 114.667,213.243 115.154,213.833 115.750 M208.667 115.917 C 209.257 116.513,209.778 117.000,209.824 117.000 C 209.870 117.000,209.424 116.513,208.833 115.917 C 208.243 115.321,207.722 114.833,207.676 114.833 C 207.630 114.833,208.076 115.321,208.667 115.917 M84.570 117.584 L 83.936 119.186 99.260 134.468 L 114.583 149.750 99.342 134.467 L 84.101 119.184 84.714 117.644 C 85.051 116.798,85.299 116.077,85.266 116.043 C 85.232 116.010,84.919 116.703,84.570 117.584 M299.576 118.208 L 299.583 120.417 307.708 120.419 L 315.833 120.421 307.755 120.376 L 299.676 120.330 299.622 118.165 L 299.568 116.000 299.576 118.208 M67.107 117.773 C 66.770 118.568,66.522 119.245,66.555 119.278 C 66.588 119.311,66.890 118.688,67.227 117.893 C 67.563 117.099,67.811 116.422,67.778 116.389 C 67.745 116.356,67.443 116.979,67.107 117.773 M216.333 118.250 C 216.924 118.846,217.445 119.333,217.490 119.333 C 217.536 119.333,217.091 118.846,216.500 118.250 C 215.909 117.654,215.389 117.167,215.343 117.167 C 215.297 117.167,215.743 117.654,216.333 118.250 M211.167 118.417 C 211.757 119.013,212.278 119.500,212.324 119.500 C 212.370 119.500,211.924 119.013,211.333 118.417 C 210.743 117.821,210.222 117.333,210.176 117.333 C 210.130 117.333,210.576 117.821,211.167 118.417 M215.000 122.250 C 216.327 123.579,217.450 124.667,217.496 124.667 C 217.542 124.667,216.493 123.579,215.167 122.250 C 213.840 120.921,212.717 119.833,212.671 119.833 C 212.625 119.833,213.673 120.921,215.000 122.250 M218.917 120.833 C 219.368 121.292,219.775 121.667,219.821 121.667 C 219.867 121.667,219.535 121.292,219.083 120.833 C 218.632 120.375,218.225 120.000,218.179 120.000 C 218.133 120.000,218.465 120.375,218.917 120.833 M26.280 120.458 C 28.497 120.484,32.172 120.484,34.447 120.458 C 36.722 120.432,34.908 120.411,30.417 120.411 C 25.925 120.410,24.064 120.432,26.280 120.458 M79.667 120.448 C 79.804 120.496,87.117 127.709,95.917 136.476 L 111.917 152.417 95.917 136.375 C 87.117 127.552,79.805 120.339,79.667 120.346 C 79.445 120.358,79.445 120.370,79.667 120.448 M221.417 123.333 C 221.868 123.792,222.275 124.167,222.321 124.167 C 222.367 124.167,222.035 123.792,221.583 123.333 C 221.132 122.875,220.725 122.500,220.679 122.500 C 220.633 122.500,220.965 122.875,221.417 123.333 M218.667 125.917 C 219.165 126.421,219.609 126.833,219.655 126.833 C 219.701 126.833,219.331 126.421,218.833 125.917 C 218.335 125.412,217.891 125.000,217.845 125.000 C 217.799 125.000,218.169 125.412,218.667 125.917 M223.993 125.875 C 224.684 126.611,224.833 126.743,224.833 126.618 C 224.833 126.591,224.477 126.235,224.042 125.826 L 223.250 125.083 223.993 125.875 M221.167 128.417 C 221.665 128.921,222.109 129.333,222.155 129.333 C 222.201 129.333,221.831 128.921,221.333 128.417 C 220.835 127.912,220.391 127.500,220.345 127.500 C 220.299 127.500,220.669 127.912,221.167 128.417 M226.583 128.500 C 227.035 128.958,227.442 129.333,227.487 129.333 C 227.533 129.333,227.201 128.958,226.750 128.500 C 226.299 128.042,225.892 127.667,225.846 127.667 C 225.800 127.667,226.132 128.042,226.583 128.500 M229.250 131.167 C 229.794 131.717,230.277 132.167,230.323 132.167 C 230.369 132.167,229.961 131.717,229.417 131.167 C 228.872 130.617,228.390 130.167,228.344 130.167 C 228.298 130.167,228.706 130.617,229.250 131.167 M224.000 131.250 C 224.498 131.754,224.943 132.167,224.989 132.167 C 225.034 132.167,224.665 131.754,224.167 131.250 C 223.669 130.746,223.224 130.333,223.178 130.333 C 223.132 130.333,223.502 130.746,224.000 131.250 M231.417 133.333 C 231.961 133.883,232.444 134.333,232.490 134.333 C 232.535 134.333,232.128 133.883,231.583 133.333 C 231.039 132.783,230.556 132.333,230.510 132.333 C 230.465 132.333,230.872 132.783,231.417 133.333 M226.417 133.667 C 226.961 134.217,227.444 134.667,227.490 134.667 C 227.535 134.667,227.128 134.217,226.583 133.667 C 226.039 133.117,225.556 132.667,225.510 132.667 C 225.465 132.667,225.872 133.117,226.417 133.667 M233.917 135.833 C 234.461 136.383,234.944 136.833,234.990 136.833 C 235.035 136.833,234.628 136.383,234.083 135.833 C 233.539 135.283,233.056 134.833,233.010 134.833 C 232.965 134.833,233.372 135.283,233.917 135.833 M228.917 136.167 C 229.461 136.717,229.944 137.167,229.990 137.167 C 230.035 137.167,229.628 136.717,229.083 136.167 C 228.539 135.617,228.056 135.167,228.010 135.167 C 227.965 135.167,228.372 135.617,228.917 136.167 M231.500 138.750 C 232.091 139.346,232.611 139.833,232.657 139.833 C 232.703 139.833,232.257 139.346,231.667 138.750 C 231.076 138.154,230.555 137.667,230.510 137.667 C 230.464 137.667,230.909 138.154,231.500 138.750 M236.917 138.833 C 237.461 139.383,237.944 139.833,237.990 139.833 C 238.035 139.833,237.628 139.383,237.083 138.833 C 236.539 138.283,236.056 137.833,236.010 137.833 C 235.965 137.833,236.372 138.283,236.917 138.833 M234.000 141.250 C 234.591 141.846,235.111 142.333,235.157 142.333 C 235.203 142.333,234.757 141.846,234.167 141.250 C 233.576 140.654,233.055 140.167,233.010 140.167 C 232.964 140.167,233.409 140.654,234.000 141.250 M239.333 141.250 C 239.831 141.754,240.276 142.167,240.322 142.167 C 240.368 142.167,239.998 141.754,239.500 141.250 C 239.002 140.746,238.557 140.333,238.511 140.333 C 238.466 140.333,238.835 140.746,239.333 141.250 M174.583 141.500 C 174.941 141.867,175.272 142.167,175.318 142.167 C 175.363 142.167,175.108 141.867,174.750 141.500 C 174.392 141.133,174.062 140.833,174.016 140.833 C 173.970 140.833,174.225 141.133,174.583 141.500 M366.292 141.345 C 365.948 141.526,365.667 141.712,365.667 141.757 C 365.667 141.832,366.983 141.216,367.153 141.063 C 367.345 140.889,366.844 141.053,366.292 141.345 M376.000 141.250 C 376.229 141.381,376.492 141.488,376.583 141.488 C 376.675 141.488,376.563 141.381,376.333 141.250 C 376.104 141.119,375.842 141.012,375.750 141.012 C 375.658 141.012,375.771 141.119,376.000 141.250 M241.833 143.750 C 242.424 144.346,242.945 144.833,242.990 144.833 C 243.036 144.833,242.591 144.346,242.000 143.750 C 241.409 143.154,240.889 142.667,240.843 142.667 C 240.797 142.667,241.243 143.154,241.833 143.750 M236.583 143.833 C 237.128 144.383,237.610 144.833,237.656 144.833 C 237.702 144.833,237.294 144.383,236.750 143.833 C 236.206 143.283,235.723 142.833,235.677 142.833 C 235.631 142.833,236.039 143.283,236.583 143.833 M370.042 144.115 C 370.202 144.157,370.465 144.157,370.625 144.115 C 370.785 144.073,370.654 144.039,370.333 144.039 C 370.012 144.039,369.881 144.073,370.042 144.115 M372.208 144.115 C 372.369 144.157,372.631 144.157,372.792 144.115 C 372.952 144.073,372.821 144.039,372.500 144.039 C 372.179 144.039,372.048 144.073,372.208 144.115 M160.721 145.042 C 160.535 145.248,160.323 145.529,160.250 145.667 C 160.110 145.932,160.148 145.896,160.823 145.125 C 161.044 144.873,161.187 144.667,161.141 144.667 C 161.096 144.667,160.906 144.835,160.721 145.042 M244.083 146.000 C 244.628 146.550,245.110 147.000,245.156 147.000 C 245.202 147.000,244.794 146.550,244.250 146.000 C 243.706 145.450,243.223 145.000,243.177 145.000 C 243.131 145.000,243.539 145.450,244.083 146.000 M239.083 146.333 C 239.628 146.883,240.110 147.333,240.156 147.333 C 240.202 147.333,239.794 146.883,239.250 146.333 C 238.706 145.783,238.223 145.333,238.177 145.333 C 238.131 145.333,238.539 145.783,239.083 146.333 M246.750 148.667 C 247.294 149.217,247.777 149.667,247.823 149.667 C 247.869 149.667,247.461 149.217,246.917 148.667 C 246.372 148.117,245.890 147.667,245.844 147.667 C 245.798 147.667,246.206 148.117,246.750 148.667 M241.667 148.917 C 242.257 149.512,242.778 150.000,242.824 150.000 C 242.870 150.000,242.424 149.512,241.833 148.917 C 241.243 148.321,240.722 147.833,240.676 147.833 C 240.630 147.833,241.076 148.321,241.667 148.917 M178.058 149.667 C 178.058 150.446,178.087 150.765,178.122 150.375 C 178.157 149.985,178.157 149.348,178.122 148.958 C 178.087 148.569,178.058 148.887,178.058 149.667 M155.375 149.083 C 155.377 149.450,155.411 149.580,155.451 149.373 C 155.491 149.166,155.490 148.866,155.448 148.706 C 155.406 148.547,155.374 148.717,155.375 149.083 M244.167 151.417 C 244.757 152.012,245.278 152.500,245.324 152.500 C 245.370 152.500,244.924 152.012,244.333 151.417 C 243.743 150.821,243.222 150.333,243.176 150.333 C 243.130 150.333,243.576 150.821,244.167 151.417 M382.721 151.583 C 382.722 152.225,382.752 152.467,382.788 152.121 C 382.824 151.775,382.824 151.250,382.787 150.955 C 382.750 150.659,382.721 150.942,382.721 151.583 M246.455 153.663 L 247.326 154.572 247.879 154.036 L 248.433 153.500 304.286 153.500 C 342.263 153.500,360.166 153.555,360.224 153.671 C 360.270 153.765,360.289 153.746,360.265 153.629 C 360.231 153.458,349.468 153.409,304.328 153.375 L 248.433 153.333 247.882 153.867 L 247.331 154.401 246.457 153.578 L 245.583 152.754 246.455 153.663 M119.750 153.457 C 140.906 153.571,156.128 153.571,156.058 153.458 C 156.015 153.390,146.029 153.351,133.865 153.373 C 121.702 153.395,115.350 153.433,119.750 153.457 M379.410 159.542 L 378.583 160.417 379.458 159.590 C 379.940 159.135,380.333 158.741,380.333 158.715 C 380.333 158.590,380.179 158.729,379.410 159.542 M363.250 159.500 C 363.608 159.867,363.938 160.167,363.984 160.167 C 364.030 160.167,363.775 159.867,363.417 159.500 C 363.059 159.133,362.728 158.833,362.682 158.833 C 362.637 158.833,362.892 159.133,363.250 159.500 M370.875 159.121 C 371.219 159.157,371.781 159.157,372.125 159.121 C 372.469 159.085,372.188 159.056,371.500 159.056 C 370.813 159.056,370.531 159.085,370.875 159.121 " stroke="none" fill="#e19cc6" fill-rule="evenodd"></path></g></svg>