<?xml version="1.0" encoding="UTF-8"?>
<svg xmlns="http://www.w3.org/2000/svg" id="Layer_1" data-name="Layer 1" viewBox="0 0 24 24" width="512" height="512"><path d="M18.348,7.23c-1.311-3.151-4.395-5.23-7.848-5.23C5.813,2,2,5.813,2,10.5c0,.551,.053,1.097,.157,1.633-1.347,1.032-2.157,2.646-2.157,4.367,0,3.032,2.243,5.5,5,5.5h11.5c4.136,0,7.5-3.364,7.5-7.5,0-3.467-2.344-6.437-5.652-7.27Zm-1.848,12.77H5c-1.654,0-3-1.57-3-3.5,0-1.261,.684-2.43,1.784-3.051l.688-.389-.219-.76c-.168-.582-.253-1.188-.253-1.801,0-3.584,2.916-6.5,6.5-6.5,2.79,0,5.265,1.774,6.159,4.415l.191,.564,.587,.101c2.644,.454,4.563,2.733,4.563,5.42,0,3.032-2.467,5.5-5.5,5.5Zm-1.207-7.293l1.414,1.414-3.293,3.293c-.39,.39-.902,.585-1.414,.585s-1.024-.195-1.414-.585l-3.293-3.293,1.414-1.414,2.293,2.293v-6h2v6l2.293-2.293Z"/></svg>
